<svg xmlns="http://www.w3.org/2000/svg" xmlns:xlink="http://www.w3.org/1999/xlink" width="1em" height="1em" preserveAspectRatio="xMidYMid meet" viewBox="0 0 16 16" style="-ms-transform: rotate(360deg); -webkit-transform: rotate(360deg); transform: rotate(360deg);"><g fill="currentColor"><path d="M8.002 5.5a1.5 1.5 0 1 1-3 0a1.5 1.5 0 0 1 3 0z"/><path d="M12 0H4a2 2 0 0 0-2 2v12a2 2 0 0 0 2 2h8a2 2 0 0 0 2-2V2a2 2 0 0 0-2-2zM3 2a1 1 0 0 1 1-1h8a1 1 0 0 1 1 1v8l-2.083-2.083a.5.5 0 0 0-.76.063L8 11L5.835 9.7a.5.5 0 0 0-.611.076L3 12V2z"/></g></svg>